<mxfile host="app.diagrams.net" agent="Mozilla/5.0 (Macintosh; Intel Mac OS X 10_15_7) AppleWebKit/605.1.15 (KHTML, like Gecko) Version/18.1 Safari/605.1.15" version="25.0.3">
  <diagram name="PÃ¡gina-1" id="KLoLlaETE8MutQjNkDm5">
    <mxGraphModel grid="1" page="1" gridSize="10" guides="1" tooltips="1" connect="1" arrows="1" fold="1" pageScale="1" pageWidth="827" pageHeight="1169" math="0" shadow="0">
      <root>
        <mxCell id="0" />
        <mxCell id="1" parent="0" />
        <mxCell id="ZEqQvaj96XyBihHs5B97-2" value="Chirp.Core" style="shape=umlFrame;whiteSpace=wrap;html=1;pointerEvents=0;width=146;height=30;" vertex="1" parent="1">
          <mxGeometry x="310" y="110" width="490" height="210" as="geometry" />
        </mxCell>
        <mxCell id="ZEqQvaj96XyBihHs5B97-3" value="Microsoft.AspNetCore.Identity" style="shape=umlFrame;whiteSpace=wrap;html=1;pointerEvents=0;width=190;height=35;" vertex="1" parent="1">
          <mxGeometry x="-10" y="117.5" width="230" height="185" as="geometry" />
        </mxCell>
        <mxCell id="ZEqQvaj96XyBihHs5B97-4" value="Cheep" style="swimlane;fontStyle=0;childLayout=stackLayout;horizontal=1;startSize=26;fillColor=none;horizontalStack=0;resizeParent=1;resizeParentMax=0;resizeLast=0;collapsible=1;marginBottom=0;whiteSpace=wrap;html=1;" vertex="1" parent="1">
          <mxGeometry x="600" y="171" width="140" height="104" as="geometry">
            <mxRectangle x="400" y="330" width="100" height="30" as="alternateBounds" />
          </mxGeometry>
        </mxCell>
        <mxCell id="ZEqQvaj96XyBihHs5B97-5" value="CheepId: int" style="text;strokeColor=none;fillColor=none;align=left;verticalAlign=top;spacingLeft=4;spacingRight=4;overflow=hidden;rotatable=0;points=[[0,0.5],[1,0.5]];portConstraint=eastwest;whiteSpace=wrap;html=1;" vertex="1" parent="ZEqQvaj96XyBihHs5B97-4">
          <mxGeometry y="26" width="140" height="26" as="geometry" />
        </mxCell>
        <mxCell id="ZEqQvaj96XyBihHs5B97-11" value="Text: stirng" style="text;strokeColor=none;fillColor=none;align=left;verticalAlign=top;spacingLeft=4;spacingRight=4;overflow=hidden;rotatable=0;points=[[0,0.5],[1,0.5]];portConstraint=eastwest;whiteSpace=wrap;html=1;" vertex="1" parent="ZEqQvaj96XyBihHs5B97-4">
          <mxGeometry y="52" width="140" height="26" as="geometry" />
        </mxCell>
        <mxCell id="ZEqQvaj96XyBihHs5B97-12" value="TimeStamp: DateTame" style="text;strokeColor=none;fillColor=none;align=left;verticalAlign=top;spacingLeft=4;spacingRight=4;overflow=hidden;rotatable=0;points=[[0,0.5],[1,0.5]];portConstraint=eastwest;whiteSpace=wrap;html=1;" vertex="1" parent="ZEqQvaj96XyBihHs5B97-4">
          <mxGeometry y="78" width="140" height="26" as="geometry" />
        </mxCell>
        <mxCell id="ZEqQvaj96XyBihHs5B97-15" value="IdentityUser" style="swimlane;fontStyle=0;childLayout=stackLayout;horizontal=1;startSize=26;fillColor=none;horizontalStack=0;resizeParent=1;resizeParentMax=0;resizeLast=0;collapsible=1;marginBottom=0;whiteSpace=wrap;html=1;" vertex="1" parent="1">
          <mxGeometry x="30" y="176" width="140" height="78" as="geometry" />
        </mxCell>
        <mxCell id="ZEqQvaj96XyBihHs5B97-16" value="name: string" style="text;strokeColor=none;fillColor=none;align=left;verticalAlign=top;spacingLeft=4;spacingRight=4;overflow=hidden;rotatable=0;points=[[0,0.5],[1,0.5]];portConstraint=eastwest;whiteSpace=wrap;html=1;" vertex="1" parent="ZEqQvaj96XyBihHs5B97-15">
          <mxGeometry y="26" width="140" height="26" as="geometry" />
        </mxCell>
        <mxCell id="ZEqQvaj96XyBihHs5B97-17" value="email: string" style="text;strokeColor=none;fillColor=none;align=left;verticalAlign=top;spacingLeft=4;spacingRight=4;overflow=hidden;rotatable=0;points=[[0,0.5],[1,0.5]];portConstraint=eastwest;whiteSpace=wrap;html=1;" vertex="1" parent="ZEqQvaj96XyBihHs5B97-15">
          <mxGeometry y="52" width="140" height="26" as="geometry" />
        </mxCell>
        <mxCell id="ZEqQvaj96XyBihHs5B97-19" value="Author" style="swimlane;fontStyle=0;childLayout=stackLayout;horizontal=1;startSize=26;fillColor=none;horizontalStack=0;resizeParent=1;resizeParentMax=0;resizeLast=0;collapsible=1;marginBottom=0;whiteSpace=wrap;html=1;" vertex="1" parent="1">
          <mxGeometry x="344" y="189" width="140" height="52" as="geometry" />
        </mxCell>
        <mxCell id="ZEqQvaj96XyBihHs5B97-20" value="ProfilePicture: string" style="text;strokeColor=none;fillColor=none;align=left;verticalAlign=top;spacingLeft=4;spacingRight=4;overflow=hidden;rotatable=0;points=[[0,0.5],[1,0.5]];portConstraint=eastwest;whiteSpace=wrap;html=1;" vertex="1" parent="ZEqQvaj96XyBihHs5B97-19">
          <mxGeometry y="26" width="140" height="26" as="geometry" />
        </mxCell>
        <mxCell id="ZEqQvaj96XyBihHs5B97-24" value="" style="endArrow=none;html=1;edgeStyle=orthogonalEdgeStyle;rounded=0;exitX=1;exitY=0.5;exitDx=0;exitDy=0;entryX=0.5;entryY=0;entryDx=0;entryDy=0;" edge="1" parent="ZEqQvaj96XyBihHs5B97-19" source="ZEqQvaj96XyBihHs5B97-20" target="ZEqQvaj96XyBihHs5B97-19">
          <mxGeometry relative="1" as="geometry">
            <mxPoint x="26" y="91" as="sourcePoint" />
            <mxPoint x="186" y="91" as="targetPoint" />
            <Array as="points">
              <mxPoint x="166" y="39" />
              <mxPoint x="166" y="-39" />
              <mxPoint x="70" y="-39" />
            </Array>
          </mxGeometry>
        </mxCell>
        <mxCell id="ZEqQvaj96XyBihHs5B97-25" value="* Followers" style="edgeLabel;resizable=0;html=1;align=left;verticalAlign=bottom;" connectable="0" vertex="1" parent="ZEqQvaj96XyBihHs5B97-24">
          <mxGeometry x="-1" relative="1" as="geometry" />
        </mxCell>
        <mxCell id="ZEqQvaj96XyBihHs5B97-26" value="* Following" style="edgeLabel;resizable=0;html=1;align=right;verticalAlign=bottom;" connectable="0" vertex="1" parent="ZEqQvaj96XyBihHs5B97-24">
          <mxGeometry x="1" relative="1" as="geometry">
            <mxPoint x="-4" as="offset" />
          </mxGeometry>
        </mxCell>
        <mxCell id="ZEqQvaj96XyBihHs5B97-23" value="Extends" style="endArrow=block;endSize=16;endFill=0;html=1;rounded=0;exitX=-0.015;exitY=0.054;exitDx=0;exitDy=0;exitPerimeter=0;entryX=1;entryY=0.5;entryDx=0;entryDy=0;" edge="1" parent="1" source="ZEqQvaj96XyBihHs5B97-20" target="ZEqQvaj96XyBihHs5B97-16">
          <mxGeometry width="160" relative="1" as="geometry">
            <mxPoint x="370" y="280" as="sourcePoint" />
            <mxPoint x="156" y="225" as="targetPoint" />
          </mxGeometry>
        </mxCell>
        <mxCell id="ZEqQvaj96XyBihHs5B97-27" value="" style="endArrow=none;html=1;edgeStyle=orthogonalEdgeStyle;rounded=0;entryX=0;entryY=0.5;entryDx=0;entryDy=0;exitX=0.436;exitY=1.025;exitDx=0;exitDy=0;exitPerimeter=0;" edge="1" parent="1" source="ZEqQvaj96XyBihHs5B97-20" target="ZEqQvaj96XyBihHs5B97-12">
          <mxGeometry relative="1" as="geometry">
            <mxPoint x="370" y="280" as="sourcePoint" />
            <mxPoint x="530" y="280" as="targetPoint" />
          </mxGeometry>
        </mxCell>
        <mxCell id="ZEqQvaj96XyBihHs5B97-28" value="1 Author" style="edgeLabel;resizable=0;html=1;align=left;verticalAlign=bottom;" connectable="0" vertex="1" parent="ZEqQvaj96XyBihHs5B97-27">
          <mxGeometry x="-1" relative="1" as="geometry">
            <mxPoint y="18" as="offset" />
          </mxGeometry>
        </mxCell>
        <mxCell id="ZEqQvaj96XyBihHs5B97-29" value="* Cheeps" style="edgeLabel;resizable=0;html=1;align=right;verticalAlign=bottom;" connectable="0" vertex="1" parent="ZEqQvaj96XyBihHs5B97-27">
          <mxGeometry x="1" relative="1" as="geometry">
            <mxPoint x="-10" as="offset" />
          </mxGeometry>
        </mxCell>
        <mxCell id="ZEqQvaj96XyBihHs5B97-30" value="" style="endArrow=none;html=1;edgeStyle=orthogonalEdgeStyle;rounded=0;exitX=0.159;exitY=1.025;exitDx=0;exitDy=0;exitPerimeter=0;entryX=0.408;entryY=1.063;entryDx=0;entryDy=0;entryPerimeter=0;" edge="1" parent="1" source="ZEqQvaj96XyBihHs5B97-20" target="ZEqQvaj96XyBihHs5B97-12">
          <mxGeometry relative="1" as="geometry">
            <mxPoint x="420" y="360" as="sourcePoint" />
            <mxPoint x="580" y="360" as="targetPoint" />
            <Array as="points">
              <mxPoint x="366" y="300" />
              <mxPoint x="657" y="300" />
            </Array>
          </mxGeometry>
        </mxCell>
        <mxCell id="ZEqQvaj96XyBihHs5B97-31" value="* Is_like" style="edgeLabel;resizable=0;html=1;align=left;verticalAlign=bottom;" connectable="0" vertex="1" parent="ZEqQvaj96XyBihHs5B97-30">
          <mxGeometry x="-1" relative="1" as="geometry">
            <mxPoint x="-46" y="18" as="offset" />
          </mxGeometry>
        </mxCell>
        <mxCell id="ZEqQvaj96XyBihHs5B97-32" value="* Like" style="edgeLabel;resizable=0;html=1;align=right;verticalAlign=bottom;" connectable="0" vertex="1" parent="ZEqQvaj96XyBihHs5B97-30">
          <mxGeometry x="1" relative="1" as="geometry">
            <mxPoint x="-7" y="23" as="offset" />
          </mxGeometry>
        </mxCell>
        <mxCell id="YUWe89u8e_Yc1O3qFb2z-1" value="Chirp.Infrastructure" style="shape=umlFrame;whiteSpace=wrap;html=1;pointerEvents=0;width=146;height=30;" vertex="1" parent="1">
          <mxGeometry x="30" y="360" width="220" height="310" as="geometry" />
        </mxCell>
        <mxCell id="YUWe89u8e_Yc1O3qFb2z-2" value="CheepDto" style="swimlane;fontStyle=0;childLayout=stackLayout;horizontal=1;startSize=26;fillColor=none;horizontalStack=0;resizeParent=1;resizeParentMax=0;resizeLast=0;collapsible=1;marginBottom=0;whiteSpace=wrap;html=1;" vertex="1" parent="1">
          <mxGeometry x="60" y="410" width="140" height="208" as="geometry">
            <mxRectangle x="400" y="330" width="100" height="30" as="alternateBounds" />
          </mxGeometry>
        </mxCell>
        <mxCell id="YUWe89u8e_Yc1O3qFb2z-3" value="Id: int" style="text;strokeColor=none;fillColor=none;align=left;verticalAlign=top;spacingLeft=4;spacingRight=4;overflow=hidden;rotatable=0;points=[[0,0.5],[1,0.5]];portConstraint=eastwest;whiteSpace=wrap;html=1;" vertex="1" parent="YUWe89u8e_Yc1O3qFb2z-2">
          <mxGeometry y="26" width="140" height="26" as="geometry" />
        </mxCell>
        <mxCell id="YUWe89u8e_Yc1O3qFb2z-6" value="Author: string" style="text;strokeColor=none;fillColor=none;align=left;verticalAlign=top;spacingLeft=4;spacingRight=4;overflow=hidden;rotatable=0;points=[[0,0.5],[1,0.5]];portConstraint=eastwest;whiteSpace=wrap;html=1;" vertex="1" parent="YUWe89u8e_Yc1O3qFb2z-2">
          <mxGeometry y="52" width="140" height="26" as="geometry" />
        </mxCell>
        <mxCell id="YUWe89u8e_Yc1O3qFb2z-4" value="Message: string" style="text;strokeColor=none;fillColor=none;align=left;verticalAlign=top;spacingLeft=4;spacingRight=4;overflow=hidden;rotatable=0;points=[[0,0.5],[1,0.5]];portConstraint=eastwest;whiteSpace=wrap;html=1;" vertex="1" parent="YUWe89u8e_Yc1O3qFb2z-2">
          <mxGeometry y="78" width="140" height="26" as="geometry" />
        </mxCell>
        <mxCell id="YUWe89u8e_Yc1O3qFb2z-5" value="TimeStamp: long" style="text;strokeColor=none;fillColor=none;align=left;verticalAlign=top;spacingLeft=4;spacingRight=4;overflow=hidden;rotatable=0;points=[[0,0.5],[1,0.5]];portConstraint=eastwest;whiteSpace=wrap;html=1;" vertex="1" parent="YUWe89u8e_Yc1O3qFb2z-2">
          <mxGeometry y="104" width="140" height="26" as="geometry" />
        </mxCell>
        <mxCell id="YUWe89u8e_Yc1O3qFb2z-7" value="IsFollowed: bool" style="text;strokeColor=none;fillColor=none;align=left;verticalAlign=top;spacingLeft=4;spacingRight=4;overflow=hidden;rotatable=0;points=[[0,0.5],[1,0.5]];portConstraint=eastwest;whiteSpace=wrap;html=1;" vertex="1" parent="YUWe89u8e_Yc1O3qFb2z-2">
          <mxGeometry y="130" width="140" height="26" as="geometry" />
        </mxCell>
        <mxCell id="YUWe89u8e_Yc1O3qFb2z-8" value="LikeCount: int" style="text;strokeColor=none;fillColor=none;align=left;verticalAlign=top;spacingLeft=4;spacingRight=4;overflow=hidden;rotatable=0;points=[[0,0.5],[1,0.5]];portConstraint=eastwest;whiteSpace=wrap;html=1;" vertex="1" parent="YUWe89u8e_Yc1O3qFb2z-2">
          <mxGeometry y="156" width="140" height="26" as="geometry" />
        </mxCell>
        <mxCell id="YUWe89u8e_Yc1O3qFb2z-9" value="IsLikedByUser: bool" style="text;strokeColor=none;fillColor=none;align=left;verticalAlign=top;spacingLeft=4;spacingRight=4;overflow=hidden;rotatable=0;points=[[0,0.5],[1,0.5]];portConstraint=eastwest;whiteSpace=wrap;html=1;" vertex="1" parent="YUWe89u8e_Yc1O3qFb2z-2">
          <mxGeometry y="182" width="140" height="26" as="geometry" />
        </mxCell>
        <mxCell id="YUWe89u8e_Yc1O3qFb2z-10" value="Chirp.Web" style="shape=umlFrame;whiteSpace=wrap;html=1;pointerEvents=0;width=146;height=30;" vertex="1" parent="1">
          <mxGeometry x="350" y="360" width="340" height="340" as="geometry" />
        </mxCell>
        <mxCell id="YUWe89u8e_Yc1O3qFb2z-19" value="&lt;span style=&quot;font-weight: normal;&quot;&gt;CheepViewModel&lt;/span&gt;" style="swimlane;fontStyle=1;align=center;verticalAlign=top;childLayout=stackLayout;horizontal=1;startSize=26;horizontalStack=0;resizeParent=1;resizeParentMax=0;resizeLast=0;collapsible=1;marginBottom=0;whiteSpace=wrap;html=1;fillColor=none;" vertex="1" parent="1">
          <mxGeometry x="390" y="428" width="260" height="242" as="geometry" />
        </mxCell>
        <mxCell id="YUWe89u8e_Yc1O3qFb2z-20" value="Id:int" style="text;strokeColor=none;fillColor=none;align=left;verticalAlign=top;spacingLeft=4;spacingRight=4;overflow=hidden;rotatable=0;points=[[0,0.5],[1,0.5]];portConstraint=eastwest;whiteSpace=wrap;html=1;" vertex="1" parent="YUWe89u8e_Yc1O3qFb2z-19">
          <mxGeometry y="26" width="260" height="26" as="geometry" />
        </mxCell>
        <mxCell id="YUWe89u8e_Yc1O3qFb2z-27" value="Author: String" style="text;strokeColor=none;fillColor=none;align=left;verticalAlign=top;spacingLeft=4;spacingRight=4;overflow=hidden;rotatable=0;points=[[0,0.5],[1,0.5]];portConstraint=eastwest;whiteSpace=wrap;html=1;" vertex="1" parent="YUWe89u8e_Yc1O3qFb2z-19">
          <mxGeometry y="52" width="260" height="26" as="geometry" />
        </mxCell>
        <mxCell id="YUWe89u8e_Yc1O3qFb2z-29" value="Message: string" style="text;strokeColor=none;fillColor=none;align=left;verticalAlign=top;spacingLeft=4;spacingRight=4;overflow=hidden;rotatable=0;points=[[0,0.5],[1,0.5]];portConstraint=eastwest;whiteSpace=wrap;html=1;" vertex="1" parent="YUWe89u8e_Yc1O3qFb2z-19">
          <mxGeometry y="78" width="260" height="26" as="geometry" />
        </mxCell>
        <mxCell id="YUWe89u8e_Yc1O3qFb2z-30" value="Timestamp: string" style="text;strokeColor=none;fillColor=none;align=left;verticalAlign=top;spacingLeft=4;spacingRight=4;overflow=hidden;rotatable=0;points=[[0,0.5],[1,0.5]];portConstraint=eastwest;whiteSpace=wrap;html=1;" vertex="1" parent="YUWe89u8e_Yc1O3qFb2z-19">
          <mxGeometry y="104" width="260" height="26" as="geometry" />
        </mxCell>
        <mxCell id="YUWe89u8e_Yc1O3qFb2z-31" value="IsFollowed: bool" style="text;strokeColor=none;fillColor=none;align=left;verticalAlign=top;spacingLeft=4;spacingRight=4;overflow=hidden;rotatable=0;points=[[0,0.5],[1,0.5]];portConstraint=eastwest;whiteSpace=wrap;html=1;" vertex="1" parent="YUWe89u8e_Yc1O3qFb2z-19">
          <mxGeometry y="130" width="260" height="26" as="geometry" />
        </mxCell>
        <mxCell id="YUWe89u8e_Yc1O3qFb2z-32" value="LikeCount: int" style="text;strokeColor=none;fillColor=none;align=left;verticalAlign=top;spacingLeft=4;spacingRight=4;overflow=hidden;rotatable=0;points=[[0,0.5],[1,0.5]];portConstraint=eastwest;whiteSpace=wrap;html=1;" vertex="1" parent="YUWe89u8e_Yc1O3qFb2z-19">
          <mxGeometry y="156" width="260" height="26" as="geometry" />
        </mxCell>
        <mxCell id="YUWe89u8e_Yc1O3qFb2z-33" value="IsLikedByUser: bool" style="text;strokeColor=none;fillColor=none;align=left;verticalAlign=top;spacingLeft=4;spacingRight=4;overflow=hidden;rotatable=0;points=[[0,0.5],[1,0.5]];portConstraint=eastwest;whiteSpace=wrap;html=1;" vertex="1" parent="YUWe89u8e_Yc1O3qFb2z-19">
          <mxGeometry y="182" width="260" height="26" as="geometry" />
        </mxCell>
        <mxCell id="YUWe89u8e_Yc1O3qFb2z-21" value="" style="line;strokeWidth=1;fillColor=none;align=left;verticalAlign=middle;spacingTop=-1;spacingLeft=3;spacingRight=3;rotatable=0;labelPosition=right;points=[];portConstraint=eastwest;strokeColor=inherit;" vertex="1" parent="YUWe89u8e_Yc1O3qFb2z-19">
          <mxGeometry y="208" width="260" height="8" as="geometry" />
        </mxCell>
        <mxCell id="YUWe89u8e_Yc1O3qFb2z-22" value="+ TimestampToCEST(timestamp:long): string" style="text;strokeColor=none;fillColor=none;align=left;verticalAlign=top;spacingLeft=4;spacingRight=4;overflow=hidden;rotatable=0;points=[[0,0.5],[1,0.5]];portConstraint=eastwest;whiteSpace=wrap;html=1;" vertex="1" parent="YUWe89u8e_Yc1O3qFb2z-19">
          <mxGeometry y="216" width="260" height="26" as="geometry" />
        </mxCell>
      </root>
    </mxGraphModel>
  </diagram>
</mxfile>
